<?xml version="1.0" encoding="UTF-8" standalone="no"?>
<svg
   xmlns:dc="http://purl.org/dc/elements/1.1/"
   xmlns:cc="http://creativecommons.org/ns#"
   xmlns:rdf="http://www.w3.org/1999/02/22-rdf-syntax-ns#"
   xmlns:svg="http://www.w3.org/2000/svg"
   xmlns="http://www.w3.org/2000/svg"
   xmlns:sodipodi="http://sodipodi.sourceforge.net/DTD/sodipodi-0.dtd"
   xmlns:inkscape="http://www.inkscape.org/namespaces/inkscape"
   width="80"
   height="80"
   viewBox="0 0 21.166666 21.166666"
   version="1.1"
   id="svg8"
   inkscape:version="1.0.2-2 (e86c870879, 2021-01-15)"
   sodipodi:docname="logo.svg"
   inkscape:export-filename="C:\dev\InhibitWindowsEvents\images\logo.png"
   inkscape:export-xdpi="96"
   inkscape:export-ydpi="96">
  <defs
     id="defs2" />
  <sodipodi:namedview
     id="base"
     pagecolor="#ffffff"
     bordercolor="#666666"
     borderopacity="1.0"
     inkscape:pageopacity="0.0"
     inkscape:pageshadow="2"
     inkscape:zoom="7.9195959"
     inkscape:cx="69.639564"
     inkscape:cy="38.231453"
     inkscape:document-units="mm"
     inkscape:current-layer="g164"
     inkscape:document-rotation="0"
     showgrid="false"
     units="px"
     inkscape:window-width="1755"
     inkscape:window-height="1228"
     inkscape:window-x="266"
     inkscape:window-y="266"
     inkscape:window-maximized="0" />
  <metadata
     id="metadata5">
    <rdf:RDF>
      <cc:Work
         rdf:about="">
        <dc:format>image/svg+xml</dc:format>
        <dc:type
           rdf:resource="http://purl.org/dc/dcmitype/StillImage" />
        <dc:title></dc:title>
      </cc:Work>
    </rdf:RDF>
  </metadata>
  <g
     inkscape:label="Layer 1"
     inkscape:groupmode="layer"
     id="layer1">
    <g
       id="g164"
       transform="matrix(1.0138145,0,0,0.90137868,1.7925179,0.22401687)"
       style="fill:#ff0000">
      <rect
         style="fill:#ff0000;stroke:#000000;stroke-width:0.264583"
         id="rect16"
         width="4.2049851"
         height="4.1577382"
         x="2.2678571"
         y="11.670015" />
      <path
         id="rect18"
         style="fill:#000000;stroke:#000000;stroke-width:0.177129"
         d="m 3.0037062,12.139386 1.153135,0.236235 0.023624,1.090071 -1.1767585,-0.177176 z"
         sodipodi:nodetypes="ccccc" />
      <path
         id="rect18-4"
         style="fill:#000000;stroke:#000000;stroke-width:0.177129"
         d="m 4.4628429,12.415314 1.1413232,0.248047 0.035435,1.078259 -1.1649467,-0.236235 z"
         sodipodi:nodetypes="ccccc" />
      <path
         id="rect18-3"
         style="fill:#000000;stroke:#000000;stroke-width:0.177129"
         d="m 2.9947924,13.659292 1.1885704,0.236235 -0.011812,1.090071 -1.1767586,-0.236235 z"
         sodipodi:nodetypes="ccccc" />
      <path
         id="rect18-4-3"
         style="fill:#000000;stroke:#000000;stroke-width:0.177129"
         d="m 4.4893641,13.831276 1.1885704,0.177176 -0.011812,1.14913 -1.2003821,-0.129929 z"
         sodipodi:nodetypes="ccccc" />
    </g>
    <g
       id="g110"
       transform="matrix(1.3635204,0,0,1.3635204,-3.6180474,-2.349321)">
      <circle
         style="fill:none;stroke:#ff0000;stroke-width:0.264583"
         id="path102"
         cx="10.536087"
         cy="9.3785343"
         r="7.2760415" />
      <path
         style="fill:none;stroke:#ff0000;stroke-width:0.257983px;stroke-linecap:butt;stroke-linejoin:miter;stroke-opacity:1"
         d="M 5.9233255,14.899772 C 14.720104,3.3997366 14.720104,3.3997366 14.720104,3.3997366"
         id="path106" />
    </g>
    <g
       id="g153"
       transform="matrix(0.90471999,0,0,0.73687549,2.1568497,2.5149532)">
      <path
         id="rect12"
         style="fill:#ffffff;stroke:#000000;stroke-width:0.264583"
         d="m 9.163201,4.0916971 c 0.3622965,-3.21087055 7.112608,-3.27185636 7.414772,-0.07087 0.283483,3.2864792 0.02362,1.843623 0.02362,10.2610369 -2.663132,1.770983 -5.357763,1.750968 -7.4029608,0.07087 C 10.305422,11.293443 9.5716882,6.5168973 9.163201,4.0916971 Z"
         sodipodi:nodetypes="ccccc" />
      <path
         style="fill:none;stroke:#000000;stroke-width:0.264583px;stroke-linecap:butt;stroke-linejoin:miter;stroke-opacity:1"
         d="m 12.744885,1.6890811 c 0.255167,0.7888653 0.443499,1.5944856 0.590587,2.4095981 0.09154,0.507302 0.153553,0.9540298 0.153553,1.4646579"
         id="path131" />
      <path
         style="fill:#ff0000;stroke:#000000;stroke-width:0.264583px;stroke-linecap:butt;stroke-linejoin:miter;stroke-opacity:1"
         d="M 9.3430988,5.5869604 C 8.8942523,5.7405134 8.8824405,5.846819 8.8824405,5.846819 L 9.0596169,7.110677 9.1659225,7.146112 9.5202752,7.110677"
         id="path145" />
      <path
         style="fill:#ff0000;stroke:#000000;stroke-width:0.264583px;stroke-linecap:butt;stroke-linejoin:miter;stroke-opacity:1"
         d="M 9.5793339,7.8193825 C 9.1068638,7.8430071 9.1186756,7.9965586 9.1186756,7.9965586 l 0.1063058,1.4410343 0.2126115,0.011811 0.3189174,0.05906"
         id="path147" />
    </g>
  </g>
</svg>
